<svg width="43" height="43" viewBox="0 0 43 43" fill="none" xmlns="http://www.w3.org/2000/svg">
<path d="M32.3333 2H4.16667C2.97005 2 2 2.97005 2 4.16667V32.3333C2 33.53 2.97005 34.5 4.16667 34.5H32.3333C33.53 34.5 34.5 33.53 34.5 32.3333V4.16667C34.5 2.97005 33.53 2 32.3333 2Z" stroke="white" stroke-width="2.5" stroke-linejoin="round"/>
<path d="M41 8.5V37.75C41 38.612 40.6576 39.4386 40.0481 40.0481C39.4386 40.6576 38.612 41 37.75 41H8.5M2 22.5833L10.294 15.2102C10.6937 14.8549 11.2107 14.66 11.7455 14.663C12.2803 14.666 12.7951 14.8667 13.1908 15.2264L23.6667 24.75" stroke="white" stroke-width="2.5" stroke-linecap="round" stroke-linejoin="round"/>
<path d="M19.3333 20.4163L24.5171 16.0959C24.8919 15.7838 25.361 15.6073 25.8486 15.5949C26.3361 15.5826 26.8136 15.735 27.2038 16.0277L34.5 21.4996M2 16.083V24.7496M34.5 16.083V24.7496" stroke="white" stroke-width="2.5" stroke-linecap="round" stroke-linejoin="round"/>
</svg>
