<svg width="59" height="58" viewBox="0 0 59 58" fill="none" xmlns="http://www.w3.org/2000/svg">
<path d="M41.5541 18.1572V24.1213M41.5497 10.9208C41.4781 10.9208 41.4073 10.9066 41.3412 10.8791C41.2751 10.8516 41.2152 10.8112 41.1648 10.7604C41.1144 10.7096 41.0745 10.6493 41.0475 10.583C41.0205 10.5167 41.0069 10.4458 41.0075 10.3742C41.0075 10.0681 41.2524 9.82764 41.5497 9.82764M41.5584 10.9208C41.7026 10.9196 41.8405 10.8615 41.9421 10.7591C42.0437 10.6568 42.1006 10.5184 42.1006 10.3742C42.1012 10.3026 42.0876 10.2317 42.0606 10.1654C42.0336 10.0991 41.9938 10.0388 41.9434 9.98798C41.893 9.93717 41.833 9.89684 41.7669 9.86932C41.7009 9.8418 41.63 9.82763 41.5584 9.82764M2.00928 55.5289H54.5098M6.95894 29.1409C6.95894 30.2543 7.17823 31.3568 7.6043 32.3854C8.03038 33.414 8.65488 34.3487 9.44216 35.136C10.2294 35.9232 11.1641 36.5477 12.1927 36.9738C13.2213 37.3999 14.3238 37.6192 15.4372 37.6192C16.5506 37.6192 17.6531 37.3999 18.6817 36.9738C19.7103 36.5477 20.6449 35.9232 21.4322 35.136C22.2195 34.3487 22.844 33.414 23.2701 32.3854C23.6962 31.3568 23.9155 30.2543 23.9155 29.1409C23.9155 28.0275 23.6962 26.9251 23.2701 25.8964C22.844 24.8678 22.2195 23.9332 21.4322 23.1459C20.6449 22.3586 19.7103 21.7341 18.6817 21.308C17.6531 20.882 16.5506 20.6627 15.4372 20.6627C14.3238 20.6627 13.2213 20.882 12.1927 21.308C11.1641 21.7341 10.2294 22.3586 9.44216 23.1459C8.65488 23.9332 8.03038 24.8678 7.6043 25.8964C7.17823 26.9251 6.95894 28.0275 6.95894 29.1409Z" stroke="black" stroke-width="3" stroke-linecap="round" stroke-linejoin="round"/>
<path d="M2 55.5332V51.0557C2 47.4927 3.41541 44.0756 5.93487 41.5561C8.45432 39.0367 11.8714 37.6213 15.4345 37.6213C18.9975 37.6213 22.4146 39.0367 24.9341 41.5561C27.4535 44.0756 28.8689 47.4927 28.8689 51.0557V55.5332M30.5917 28.6467C33.1326 31.1331 36.4491 32.673 39.9881 33.0098C43.5271 33.3466 47.0746 32.4597 50.0388 30.4972C53.003 28.5347 55.2047 25.6152 56.2767 22.2257C57.3487 18.8362 57.226 15.1816 55.9293 11.8715C54.6326 8.56148 52.2402 5.7961 49.1511 4.03667C46.062 2.27725 42.4631 1.63016 38.9546 2.20335C35.4461 2.77653 32.2403 4.53534 29.8717 7.18638C27.5032 9.83742 26.1153 13.2204 25.9394 16.771" stroke="black" stroke-width="3" stroke-linecap="round" stroke-linejoin="round"/>
</svg>
