<svg width="52" height="53" viewBox="0 0 52 53" fill="none" xmlns="http://www.w3.org/2000/svg">
<path d="M4.66844 53C3.33763 53 2.22733 52.5466 1.33756 51.6397C0.447778 50.7328 0.00192593 49.6011 0 48.2447V38.2778H2.88889V48.2447C2.88889 48.6962 3.07378 49.1114 3.44356 49.4902C3.81333 49.8691 4.22067 50.0575 4.66556 50.0556H14.4444V53H4.66844ZM0 14.7222V4.75822C0 3.40182 0.445852 2.27017 1.33756 1.36328C2.22926 0.456389 3.33859 0.00196296 4.66556 0H14.4444V2.94444H4.66844C4.22356 2.94444 3.81526 3.13289 3.44356 3.50978C3.07185 3.88667 2.88696 4.30183 2.88889 4.75528V14.7222H0ZM37.5556 53V50.0556H47.3344C47.7774 50.0556 48.1847 49.8671 48.5564 49.4902C48.9281 49.1133 49.113 48.6972 49.1111 48.2418V38.2778H52V48.2447C52 49.5992 51.5551 50.7298 50.6653 51.6367C49.7756 52.5436 48.6653 52.998 47.3344 53H37.5556ZM49.1111 14.7222V4.75822C49.1111 4.30478 48.9262 3.88863 48.5564 3.50978C48.1867 3.13093 47.7793 2.94248 47.3344 2.94444H37.5556V0H47.3344C48.6633 0 49.7727 0.454426 50.6624 1.36328C51.5522 2.27213 51.9981 3.4028 52 4.75528V14.7222H49.1111ZM26 26.1614C23.9893 26.1614 22.283 25.4469 20.8809 24.0178C19.4788 22.5888 18.7778 20.8496 18.7778 18.8003C18.7778 16.7981 19.4788 15.0706 20.8809 13.6181C22.283 12.1655 23.9893 11.4392 26 11.4392C27.9644 11.4392 29.6593 12.1655 31.0844 13.6181C32.5096 15.0706 33.2222 16.7981 33.2222 18.8003C33.2222 20.8496 32.5096 22.5888 31.0844 24.0178C29.6593 25.4469 27.9644 26.1614 26 26.1614ZM10.1111 41.5608V37.4386C10.1111 36.6338 10.3085 35.8918 10.7033 35.2126C11.0962 34.5315 11.6336 33.9769 12.3153 33.549C14.3838 32.3006 16.5774 31.3603 18.8962 30.7282C21.217 30.1001 23.5849 29.786 26 29.786C28.4151 29.786 30.783 30.1001 33.1038 30.7282C35.4245 31.3564 37.6181 32.2966 39.6847 33.549C40.3664 33.975 40.9038 34.5295 41.2967 35.2126C41.6915 35.8938 41.8889 36.6367 41.8889 37.4416V41.5638L10.1111 41.5608Z" fill="black"/>
</svg>
