<svg width="54" height="52" viewBox="0 0 54 52" fill="none" xmlns="http://www.w3.org/2000/svg">
<path d="M7.55556 10.913H10.3333C11.8068 10.913 13.2198 10.287 14.2617 9.17262C15.3036 8.05828 15.8889 6.54691 15.8889 4.971C15.8889 4.18304 16.1815 3.42735 16.7025 2.87019C17.2234 2.31302 17.93 2 18.6667 2H35.3333C36.07 2 36.7766 2.31302 37.2975 2.87019C37.8185 3.42735 38.1111 4.18304 38.1111 4.971C38.1111 6.54691 38.6964 8.05828 39.7383 9.17262C40.7802 10.287 42.1932 10.913 43.6667 10.913H46.4444C47.9179 10.913 49.3309 11.539 50.3728 12.6534C51.4147 13.7677 52 15.2791 52 16.855V43.5939C52 45.1699 51.4147 46.6812 50.3728 47.7956C49.3309 48.9099 47.9179 49.5359 46.4444 49.5359H7.55556C6.08213 49.5359 4.66905 48.9099 3.62718 47.7956C2.58532 46.6812 2 45.1699 2 43.5939V16.855C2 15.2791 2.58532 13.7677 3.62718 12.6534C4.66905 11.539 6.08213 10.913 7.55556 10.913Z" stroke="black" stroke-width="3" stroke-linecap="round" stroke-linejoin="round"/>
<path d="M20.0558 34.6809C20.961 35.669 22.0414 36.454 23.2339 36.99C24.4263 37.5259 25.7068 37.8019 27.0002 37.8019C28.2936 37.8019 29.5741 37.5259 30.7665 36.99C31.959 36.454 33.0394 35.669 33.9446 34.6809M35.3335 22.7969H35.3613M18.6669 22.7969H18.6946" stroke="black" stroke-width="3" stroke-linecap="round" stroke-linejoin="round"/>
</svg>
