<svg width="54" height="54" viewBox="0 0 54 54" fill="none" xmlns="http://www.w3.org/2000/svg">
<path d="M29.7135 4.52457C28.5293 4.52121 27.2696 4.51953 25.9344 4.51953C14.6525 4.51953 9.00899 4.51953 5.50449 8.02402C2 11.5285 2 17.1695 2 28.4539C2 39.7358 2 45.3792 5.50449 48.8837C9.00899 52.3882 14.6499 52.3882 25.9344 52.3882C37.2162 52.3882 42.8597 52.3882 46.3642 48.8837C49.7352 45.5103 49.8637 40.1616 49.8662 29.7136" stroke="black" stroke-width="3" stroke-linecap="round" stroke-linejoin="round"/>
<path d="M2 32.5732C3.56203 32.3464 5.13414 32.2356 6.71633 32.2406C13.3978 32.0995 19.9155 34.1806 25.108 38.1133C29.92 41.7614 33.3036 46.7801 34.7523 52.3883" stroke="black" stroke-width="3" stroke-linecap="round" stroke-linejoin="round"/>
<path d="M49.0606 39.5534C46.1003 38.0543 43.8448 37.2692 40.7635 37.2717C36.1001 37.254 33.3835 38.5869 29.0955 41.9302M39.791 8.29851C41.0281 7.02369 44.326 2 46.0896 2M46.0896 2C47.8531 2 51.151 7.02369 52.3881 8.29851M46.0896 2V22.1552" stroke="black" stroke-width="3" stroke-linecap="round" stroke-linejoin="round"/>
</svg>
